<?xml version="1.0" encoding="utf-8"?>
<!-- Generator: Adobe Illustrator 16.0.0, SVG Export Plug-In . SVG Version: 6.00 Build 0)  -->
<!DOCTYPE svg PUBLIC "-//W3C//DTD SVG 1.1//EN" "http://www.w3.org/Graphics/SVG/1.1/DTD/svg11.dtd">
<svg version="1.1" id="Layer_1" xmlns="http://www.w3.org/2000/svg" xmlns:xlink="http://www.w3.org/1999/xlink" x="0px" y="0px"
	 width="34.514px" height="32.958px" viewBox="0 0 34.514 32.958" enable-background="new 0 0 34.514 32.958" xml:space="preserve">
<g>
	<path fill="#FFFFFF" d="M7.657,8.807c0,0.422-0.342,0.766-0.766,0.766H0.766C0.343,9.572,0,9.229,0,8.807V0.766
		C0,0.343,0.343,0,0.766,0h6.126c0.424,0,0.766,0.343,0.766,0.766V8.807z"/>
	<path fill="#FFFFFF" d="M7.657,20.5c0,0.422-0.342,0.766-0.766,0.766H0.766C0.343,21.265,0,20.921,0,20.5v-8.041
		c0-0.423,0.343-0.766,0.766-0.766h6.126c0.424,0,0.766,0.343,0.766,0.766V20.5z"/>
	<path fill="#FFFFFF" d="M7.657,32.192c0,0.422-0.342,0.766-0.766,0.766H0.766C0.343,32.958,0,32.614,0,32.192v-8.041
		c0-0.423,0.343-0.766,0.766-0.766h6.126c0.424,0,0.766,0.343,0.766,0.766V32.192z"/>
	<g>
		<path fill="#FFFFFF" d="M18.214,13.583v8.455h-1.461v-8.455l-3.887,3.922v-1.967l4.617-4.617l4.617,4.617v1.967L18.214,13.583z"/>
	</g>
	<g>
		<path fill="#FFFFFF" d="M29.166,19.375V10.92h1.461v8.455l3.887-3.922v1.967l-4.617,4.617l-4.617-4.617v-1.967L29.166,19.375z"/>
	</g>
</g>
</svg>
