<?xml version="1.0" encoding="utf-8"?>
<!-- Generator: Adobe Illustrator 16.0.0, SVG Export Plug-In . SVG Version: 6.00 Build 0)  -->
<!DOCTYPE svg PUBLIC "-//W3C//DTD SVG 1.1//EN" "http://www.w3.org/Graphics/SVG/1.1/DTD/svg11.dtd">
<svg version="1.1" id="Layer_1" xmlns="http://www.w3.org/2000/svg" xmlns:xlink="http://www.w3.org/1999/xlink" x="0px" y="0px"
	 width="47.904px" height="29.232px" viewBox="0 0 47.904 29.232" enable-background="new 0 0 47.904 29.232" xml:space="preserve">
<g>
	<path fill="#FFFFFF" d="M34.506,24.274c0,1.166-0.944,2.111-2.11,2.111H15.509c-1.165,0-2.111-0.945-2.111-2.111V2.111
		C13.398,0.945,14.344,0,15.509,0h16.887c1.166,0,2.11,0.945,2.11,2.111V24.274z"/>
	<path fill="#BBBDBF" d="M47.904,23.232c0,3.313-2.6,6-5.807,6H5.807c-3.207,0-5.807-2.687-5.807-6v-4.264c0-3.313,2.6-6,5.807-6
		h36.291c3.207,0,5.807,2.687,5.807,6V23.232z"/>
	<line fill="none" stroke="#58595B" stroke-miterlimit="10" x1="15.786" y1="5.198" x2="32.119" y2="5.198"/>
	<line fill="none" stroke="#58595B" stroke-miterlimit="10" x1="15.786" y1="9.025" x2="32.119" y2="9.025"/>
</g>
</svg>
