<?xml version="1.0" encoding="utf-8"?>
<!-- Generator: Adobe Illustrator 16.0.0, SVG Export Plug-In . SVG Version: 6.00 Build 0)  -->
<!DOCTYPE svg PUBLIC "-//W3C//DTD SVG 1.1//EN" "http://www.w3.org/Graphics/SVG/1.1/DTD/svg11.dtd">
<svg version="1.1" id="Layer_1" xmlns="http://www.w3.org/2000/svg" xmlns:xlink="http://www.w3.org/1999/xlink" x="0px" y="0px"
	 width="26.385px" height="28.385px" viewBox="0 0 26.385 28.385" enable-background="new 0 0 26.385 28.385" xml:space="preserve">
<g>
	<path fill="#BBBDBF" d="M23.746,24.274c0,1.166-0.944,2.111-2.11,2.111H4.749c-1.165,0-2.11-0.945-2.11-2.111V2.111
		C2.639,0.945,3.584,0,4.749,0h16.887c1.166,0,2.11,0.945,2.11,2.111V24.274z"/>
	<path fill="#FFFFFF" d="M25.382,5.278H14.855c-0.554,0-1.003,0.448-1.003,1.002v0.998H2.11C0.945,7.278,0,8.222,0,9.388v16.887
		c0,1.165,0.945,2.11,2.11,2.11h22.164c1.166,0,2.111-0.945,2.111-2.11V14.3V9.388V6.28C26.385,5.726,25.936,5.278,25.382,5.278z"/>
</g>
</svg>
