<?xml version="1.0" encoding="utf-8"?>
<!-- Generator: Adobe Illustrator 16.0.0, SVG Export Plug-In . SVG Version: 6.00 Build 0)  -->
<!DOCTYPE svg PUBLIC "-//W3C//DTD SVG 1.1//EN" "http://www.w3.org/Graphics/SVG/1.1/DTD/svg11.dtd">
<svg version="1.1" id="Layer_1" xmlns="http://www.w3.org/2000/svg" xmlns:xlink="http://www.w3.org/1999/xlink" x="0px" y="0px"
	 width="28.25px" height="28.25px" viewBox="0 0 28.25 28.25" enable-background="new 0 0 28.25 28.25" xml:space="preserve">
<g>
	<path fill="#D0D2D3" d="M4.754,14.125H0C0,21.926,6.324,28.25,14.125,28.25v-4.753C8.949,23.497,4.754,19.301,4.754,14.125z"/>
	<path fill="#A6A8AB" d="M14.125,4.753V0C6.324,0,0,6.324,0,14.125h4.754C4.754,8.949,8.949,4.753,14.125,4.753z"/>
	<path fill="#FFFFFF" d="M22.799,17.679c-1.399,3.414-4.756,5.817-8.674,5.817v4.753c5.851,0,10.872-3.557,13.016-8.626
		C25.438,18.764,24.75,18.556,22.799,17.679z"/>
	<path fill="#929497" d="M23.496,14.125h4.754C28.25,6.324,21.926,0,14.125,0v4.753C19.301,4.753,23.496,8.949,23.496,14.125z"/>
</g>
</svg>
