<?xml version="1.0" encoding="utf-8"?>
<!-- Generator: Adobe Illustrator 16.0.0, SVG Export Plug-In . SVG Version: 6.00 Build 0)  -->
<!DOCTYPE svg PUBLIC "-//W3C//DTD SVG 1.1//EN" "http://www.w3.org/Graphics/SVG/1.1/DTD/svg11.dtd">
<svg version="1.1" id="Layer_1" xmlns="http://www.w3.org/2000/svg" xmlns:xlink="http://www.w3.org/1999/xlink" x="0px" y="0px"
	 width="28.303px" height="22.642px" viewBox="0 0 28.303 22.642" enable-background="new 0 0 28.303 22.642" xml:space="preserve">
<g>
	<path fill="#A6A8AB" d="M2.264,22.642C1.015,22.642,0,21.628,0,20.378V2.264C0,1.014,1.015,0,2.264,0h23.775
		c1.249,0,2.264,1.014,2.264,2.264v18.114c0,1.25-1.015,2.264-2.264,2.264H2.264z"/>
	<circle fill="#929497" cx="14.276" cy="11.322" r="4.947"/>
	<g>
		<path fill="#FFFFFF" d="M9.014,11.841H3v-1.04h6.014L6.225,8.037h1.399l3.284,3.285l-3.284,3.284H6.225L9.014,11.841z"/>
	</g>
	<g>
		<path fill="#FFFFFF" d="M22.328,14.606h-1.399l-3.284-3.284l3.284-3.285h1.399l-2.789,2.765h6.014v1.04h-6.014L22.328,14.606z"/>
	</g>
</g>
</svg>
