<?xml version="1.0" encoding="utf-8"?>
<!-- Generator: Adobe Illustrator 16.0.0, SVG Export Plug-In . SVG Version: 6.00 Build 0)  -->
<!DOCTYPE svg PUBLIC "-//W3C//DTD SVG 1.1//EN" "http://www.w3.org/Graphics/SVG/1.1/DTD/svg11.dtd">
<svg version="1.1" id="Layer_1" xmlns="http://www.w3.org/2000/svg" xmlns:xlink="http://www.w3.org/1999/xlink" x="0px" y="0px"
	 width="28.303px" height="22.642px" viewBox="0 0 28.303 22.642" enable-background="new 0 0 28.303 22.642" xml:space="preserve">
<g>
	<path fill="#A6A8AB" d="M2.264,22.642C1.015,22.642,0,21.628,0,20.378V2.264C0,1.014,1.015,0,2.264,0h23.775
		c1.249,0,2.264,1.014,2.264,2.264v18.114c0,1.25-1.015,2.264-2.264,2.264H2.264z"/>
	<circle fill="#929497" cx="14.276" cy="11.322" r="4.947"/>
	<g>
		<path fill="#FFFFFF" d="M4.67,10.745h6.67v1.153H4.67l3.093,3.066H6.211l-3.643-3.644l3.643-3.643h1.552L4.67,10.745z"/>
	</g>
	<g>
		<path fill="#FFFFFF" d="M20.869,8.037h1.399l3.284,3.284l-3.284,3.285h-1.399l2.789-2.765h-6.014v-1.04h6.014L20.869,8.037z"/>
	</g>
</g>
</svg>
