<?xml version="1.0" encoding="utf-8"?>
<!-- Generator: Adobe Illustrator 16.0.0, SVG Export Plug-In . SVG Version: 6.00 Build 0)  -->
<!DOCTYPE svg PUBLIC "-//W3C//DTD SVG 1.1//EN" "http://www.w3.org/Graphics/SVG/1.1/DTD/svg11.dtd">
<svg version="1.1" id="Layer_1" xmlns="http://www.w3.org/2000/svg" xmlns:xlink="http://www.w3.org/1999/xlink" x="0px" y="0px"
	 width="20.232px" height="20.232px" viewBox="0 0 20.232 20.232" enable-background="new 0 0 20.232 20.232" xml:space="preserve">
<g>
	<g>
		<path fill="#FFFFFF" d="M11.934,9.577l-0.924,1.295c-0.132,0.18-0.216,0.456-0.216,0.647v0.36H9.57v-0.42
			c0-0.492,0.12-0.804,0.408-1.188l0.936-1.26c0.216-0.287,0.372-0.575,0.372-0.911c0-0.672-0.48-1.199-1.176-1.199
			c-0.744,0-1.163,0.563-1.163,1.211H7.724c0-1.354,1.031-2.303,2.387-2.303c1.308,0,2.398,0.876,2.398,2.291
			C12.509,8.678,12.257,9.133,11.934,9.577z M9.499,14.422v-1.307h1.354v1.307H9.499z"/>
	</g>
	<circle fill="none" stroke="#FFFFFF" stroke-width="2" stroke-miterlimit="10" cx="10.116" cy="10.116" r="9.116"/>
</g>
</svg>
