<?xml version="1.0" encoding="utf-8"?>
<!-- Generator: Adobe Illustrator 16.0.0, SVG Export Plug-In . SVG Version: 6.00 Build 0)  -->
<!DOCTYPE svg PUBLIC "-//W3C//DTD SVG 1.1//EN" "http://www.w3.org/Graphics/SVG/1.1/DTD/svg11.dtd">
<svg version="1.1" id="Layer_1" xmlns="http://www.w3.org/2000/svg" xmlns:xlink="http://www.w3.org/1999/xlink" x="0px" y="0px"
	 width="21.107px" height="26.386px" viewBox="0 0 21.107 26.386" enable-background="new 0 0 21.107 26.386" xml:space="preserve">
<g>
	<path fill="#FFFFFF" d="M21.107,24.274c0,1.166-0.945,2.111-2.111,2.111H2.109C0.945,26.386,0,25.44,0,24.274V2.11
		C0,0.945,0.945,0,2.109,0h16.887c1.166,0,2.111,0.945,2.111,2.11V24.274z"/>
	<g>
		<path fill="#6D6E70" d="M7.176,21.026c-1.443,0-2.701-0.945-2.701-2.639v-3.736c0-1.693,1.258-2.639,2.701-2.639
			c1.445,0,2.689,0.945,2.689,2.639v3.736C9.865,20.081,8.621,21.026,7.176,21.026z M8.246,14.677c0-0.747-0.436-1.208-1.07-1.208
			s-1.082,0.461-1.082,1.208v3.698c0,0.747,0.447,1.195,1.082,1.195s1.07-0.448,1.07-1.195V14.677z"/>
		<path fill="#6D6E70" d="M13.641,20.952V13.83l-1.807,1.569v-1.744l1.807-1.568h1.617v8.865H13.641z"/>
	</g>
	<line fill="none" stroke="#6D6E70" stroke-miterlimit="10" x1="0" y1="7.192" x2="21.107" y2="7.192"/>
</g>
</svg>
