<?xml version="1.0" encoding="utf-8"?>
<!-- Generator: Adobe Illustrator 16.0.0, SVG Export Plug-In . SVG Version: 6.00 Build 0)  -->
<!DOCTYPE svg PUBLIC "-//W3C//DTD SVG 1.1//EN" "http://www.w3.org/Graphics/SVG/1.1/DTD/svg11.dtd">
<svg version="1.1" id="Layer_1" xmlns="http://www.w3.org/2000/svg" xmlns:xlink="http://www.w3.org/1999/xlink" x="0px" y="0px"
	 width="45.889px" height="24.619px" viewBox="0 0 45.889 24.619" enable-background="new 0 0 45.889 24.619" xml:space="preserve">
<g>
	<line fill="none" stroke="#FFFFFF" stroke-width="2" stroke-miterlimit="10" x1="1.854" y1="24.619" x2="1.854" y2="10.305"/>
	<line fill="none" stroke="#FFFFFF" stroke-width="2" stroke-miterlimit="10" x1="16.022" y1="24.619" x2="16.022" y2="10.305"/>
	<line fill="none" stroke="#FFFFFF" stroke-width="2" stroke-miterlimit="10" x1="-0.001" y1="12.118" x2="17.888" y2="12.118"/>
	<line fill="none" stroke="#FFFFFF" stroke-width="2" stroke-miterlimit="10" x1="-0.001" y1="22.699" x2="17.888" y2="22.699"/>
	<line fill="none" stroke="#FFFFFF" stroke-width="2" stroke-miterlimit="10" x1="15.854" y1="24.619" x2="15.854" y2="10.305"/>
	<line fill="none" stroke="#FFFFFF" stroke-width="2" stroke-miterlimit="10" x1="30.022" y1="24.619" x2="30.022" y2="10.305"/>
	<line fill="none" stroke="#FFFFFF" stroke-width="2" stroke-miterlimit="10" x1="13.999" y1="12.118" x2="31.888" y2="12.118"/>
	<line fill="none" stroke="#FFFFFF" stroke-width="2" stroke-miterlimit="10" x1="13.999" y1="22.699" x2="31.888" y2="22.699"/>
	<line fill="none" stroke="#FFFFFF" stroke-width="2" stroke-miterlimit="10" x1="15.854" y1="14.314" x2="15.854" y2="0"/>
	<line fill="none" stroke="#FFFFFF" stroke-width="2" stroke-miterlimit="10" x1="30.022" y1="14.314" x2="30.022" y2="0"/>
	<line fill="none" stroke="#FFFFFF" stroke-width="2" stroke-miterlimit="10" x1="13.999" y1="1.813" x2="31.888" y2="1.813"/>
	<line fill="none" stroke="#FFFFFF" stroke-width="2" stroke-miterlimit="10" x1="13.999" y1="12.395" x2="31.888" y2="12.395"/>
	<line fill="none" stroke="#FFFFFF" stroke-width="2" stroke-miterlimit="10" x1="29.854" y1="24.619" x2="29.854" y2="10.305"/>
	<line fill="none" stroke="#FFFFFF" stroke-width="2" stroke-miterlimit="10" x1="44.022" y1="24.619" x2="44.022" y2="10.305"/>
	<line fill="none" stroke="#FFFFFF" stroke-width="2" stroke-miterlimit="10" x1="27.999" y1="12.118" x2="45.888" y2="12.118"/>
	<line fill="none" stroke="#FFFFFF" stroke-width="2" stroke-miterlimit="10" x1="27.999" y1="22.699" x2="45.888" y2="22.699"/>
</g>
</svg>
