<?xml version="1.0" encoding="utf-8"?>
<!-- Generator: Adobe Illustrator 16.0.0, SVG Export Plug-In . SVG Version: 6.00 Build 0)  -->
<!DOCTYPE svg PUBLIC "-//W3C//DTD SVG 1.1//EN" "http://www.w3.org/Graphics/SVG/1.1/DTD/svg11.dtd">
<svg version="1.1" id="Layer_1" xmlns="http://www.w3.org/2000/svg" xmlns:xlink="http://www.w3.org/1999/xlink" x="0px" y="0px"
	 width="53.668px" height="20.056px" viewBox="0 0 53.668 20.056" enable-background="new 0 0 53.668 20.056" xml:space="preserve">
<g>
	<g>
		<circle fill="#FFFFFF" cx="26.834" cy="4.389" r="4.389"/>
		<path fill="#FFFFFF" d="M33.635,20.056c0.008-0.112,0.033-0.219,0.033-0.333v-5.667c0-2.209-1.791-4-4-4H24c-2.209,0-4,1.791-4,4
			v5.667c0,0.114,0.025,0.221,0.035,0.333H33.635z"/>
	</g>
	<g>
		<circle fill="#FFFFFF" cx="6.834" cy="4.389" r="4.389"/>
		<path fill="#FFFFFF" d="M13.635,20.056c0.008-0.112,0.033-0.219,0.033-0.333v-5.667c0-2.209-1.791-4-4-4H4c-2.209,0-4,1.791-4,4
			v5.667c0,0.114,0.025,0.221,0.035,0.333H13.635z"/>
	</g>
	<g>
		<circle fill="#FFFFFF" cx="46.834" cy="4.389" r="4.389"/>
		<path fill="#FFFFFF" d="M53.635,20.056c0.008-0.112,0.033-0.219,0.033-0.333v-5.667c0-2.209-1.791-4-4-4H44c-2.209,0-4,1.791-4,4
			v5.667c0,0.114,0.025,0.221,0.035,0.333H53.635z"/>
	</g>
</g>
</svg>
