<?xml version="1.0" encoding="utf-8"?>
<!-- Generator: Adobe Illustrator 16.0.0, SVG Export Plug-In . SVG Version: 6.00 Build 0)  -->
<!DOCTYPE svg PUBLIC "-//W3C//DTD SVG 1.1//EN" "http://www.w3.org/Graphics/SVG/1.1/DTD/svg11.dtd">
<svg version="1.1" id="Layer_1" xmlns="http://www.w3.org/2000/svg" xmlns:xlink="http://www.w3.org/1999/xlink" x="0px" y="0px"
	 width="52.172px" height="20.056px" viewBox="0 0 52.172 20.056" enable-background="new 0 0 52.172 20.056" xml:space="preserve">
<g>
	<g>
		<circle fill="#A6A8AB" cx="6.834" cy="4.389" r="4.389"/>
		<path fill="#A6A8AB" d="M13.635,20.056c0.008-0.112,0.033-0.219,0.033-0.333v-5.667c0-2.209-1.791-4-4-4H4c-2.209,0-4,1.791-4,4
			v5.667c0,0.114,0.025,0.221,0.035,0.333H13.635z"/>
	</g>
	<g>
		<circle fill="#FFFFFF" cx="45.338" cy="4.389" r="4.389"/>
		<path fill="#FFFFFF" d="M52.139,20.056c0.008-0.112,0.033-0.219,0.033-0.333v-5.667c0-2.209-1.791-4-4-4h-5.668
			c-2.209,0-4,1.791-4,4v5.667c0,0.114,0.025,0.221,0.035,0.333H52.139z"/>
	</g>
	<g>
		<g>
			<path fill="#FFFFFF" d="M28.787,12.205H20.33l0.002-1.463l8.455-0.001l-3.924-3.886h1.969l4.617,4.619l-4.617,4.617h-1.969
				L28.787,12.205z"/>
		</g>
	</g>
</g>
</svg>
