<?xml version="1.0" encoding="utf-8"?>
<!-- Generator: Adobe Illustrator 16.0.0, SVG Export Plug-In . SVG Version: 6.00 Build 0)  -->
<!DOCTYPE svg PUBLIC "-//W3C//DTD SVG 1.1//EN" "http://www.w3.org/Graphics/SVG/1.1/DTD/svg11.dtd">
<svg version="1.1" id="Layer_1" xmlns="http://www.w3.org/2000/svg" xmlns:xlink="http://www.w3.org/1999/xlink" x="0px" y="0px"
	 width="71.666px" height="20.055px" viewBox="0 0 71.666 20.055" enable-background="new 0 0 71.666 20.055" xml:space="preserve">
<g>
	<g>
		<circle fill="#FFFFFF" cx="6.833" cy="4.389" r="4.388"/>
		<path fill="#FFFFFF" d="M13.634,20.055c0.009-0.111,0.033-0.219,0.033-0.332v-5.668c0-2.209-1.791-4-4-4H4c-2.209,0-4,1.791-4,4
			v5.668c0,0.113,0.024,0.221,0.034,0.332H13.634z"/>
	</g>
	<g>
		<circle fill="#FFFFFF" cx="26.167" cy="4.389" r="4.388"/>
		<path fill="#FFFFFF" d="M32.967,20.055C32.976,19.943,33,19.836,33,19.723v-5.668c0-2.209-1.791-4-4-4h-5.667
			c-2.209,0-4,1.791-4,4v5.668c0,0.113,0.024,0.221,0.034,0.332H32.967z"/>
	</g>
	<g>
		<circle fill="#FFFFFF" cx="45.5" cy="4.389" r="4.388"/>
		<path fill="#FFFFFF" d="M52.3,20.055c0.009-0.111,0.033-0.219,0.033-0.332v-5.668c0-2.209-1.791-4-4-4h-5.667
			c-2.209,0-4,1.791-4,4v5.668c0,0.113,0.024,0.221,0.034,0.332H52.3z"/>
	</g>
	<g>
		<circle fill="#FFFFFF" cx="64.833" cy="4.389" r="4.388"/>
		<path fill="#FFFFFF" d="M71.633,20.055c0.009-0.111,0.033-0.219,0.033-0.332v-5.668c0-2.209-1.791-4-4-4h-5.667
			c-2.209,0-4,1.791-4,4v5.668c0,0.113,0.024,0.221,0.034,0.332H71.633z"/>
	</g>
</g>
</svg>
