<?xml version="1.0" encoding="utf-8"?>
<!-- Generator: Adobe Illustrator 16.0.0, SVG Export Plug-In . SVG Version: 6.00 Build 0)  -->
<!DOCTYPE svg PUBLIC "-//W3C//DTD SVG 1.1//EN" "http://www.w3.org/Graphics/SVG/1.1/DTD/svg11.dtd">
<svg version="1.1" id="Layer_1" xmlns="http://www.w3.org/2000/svg" xmlns:xlink="http://www.w3.org/1999/xlink" x="0px" y="0px"
	 width="35.127px" height="35.805px" viewBox="0 0 35.127 35.805" enable-background="new 0 0 35.127 35.805" xml:space="preserve">
<g>
	<g>
		<path fill="none" stroke="#FFFFFF" stroke-width="2" stroke-miterlimit="10" d="M32.98,31.308c0,1.648-1.336,2.984-2.984,2.984
			H5.131c-1.648,0-2.984-1.336-2.984-2.984v-9.449c0-1.647,1.336-2.983,2.984-2.983h24.865c1.648,0,2.984,1.336,2.984,2.983V31.308z
			"/>
		<circle fill="#FFFFFF" cx="17.563" cy="26.583" r="5.417"/>
		<g>
			<g>
				<path fill="#6D6E70" d="M17.858,29.696v1.008h-0.909v-0.972c-0.864-0.027-1.54-0.252-2.125-0.847l0.811-0.81
					c0.378,0.378,0.891,0.522,1.432,0.54v-1.629l-0.288-0.036c-0.54-0.072-0.973-0.27-1.243-0.54
					c-0.306-0.306-0.459-0.711-0.459-1.251c0-1.035,0.702-1.8,1.873-1.926v-0.811h0.909v0.801c0.729,0.045,1.287,0.27,1.773,0.738
					l-0.792,0.783c-0.297-0.288-0.738-0.405-1.107-0.432v1.566l0.342,0.054c0.585,0.09,0.954,0.252,1.225,0.504
					c0.342,0.324,0.495,0.783,0.495,1.35C19.794,28.886,18.983,29.561,17.858,29.696z M17.066,24.322
					c-0.522,0.072-0.783,0.396-0.783,0.792c0,0.162,0.054,0.333,0.188,0.459c0.145,0.135,0.343,0.216,0.595,0.252V24.322z
					 M18.371,27.284c-0.18-0.171-0.404-0.198-0.639-0.234v1.548c0.54-0.063,0.837-0.333,0.837-0.774
					C18.569,27.599,18.507,27.41,18.371,27.284z"/>
			</g>
		</g>
		<line fill="none" stroke="#FFFFFF" stroke-miterlimit="10" x1="5.854" y1="24.417" x2="11.146" y2="24.417"/>
		<line fill="none" stroke="#FFFFFF" stroke-miterlimit="10" x1="5.854" y1="26.583" x2="11.146" y2="26.583"/>
		<line fill="none" stroke="#FFFFFF" stroke-miterlimit="10" x1="5.854" y1="28.749" x2="11.146" y2="28.749"/>
		<line fill="none" stroke="#FFFFFF" stroke-miterlimit="10" x1="24.354" y1="24.417" x2="29.646" y2="24.417"/>
		<line fill="none" stroke="#FFFFFF" stroke-miterlimit="10" x1="24.354" y1="26.583" x2="29.646" y2="26.583"/>
		<line fill="none" stroke="#FFFFFF" stroke-miterlimit="10" x1="24.354" y1="28.749" x2="29.646" y2="28.749"/>
	</g>
	<g>
		<path fill="#FFFFFF" d="M16.832,9.968V1.513h1.463v8.455l3.887-3.922v1.967l-4.619,4.617l-4.617-4.617V6.046L16.832,9.968z"/>
	</g>
</g>
</svg>
