<?xml version="1.0" encoding="utf-8"?>
<!-- Generator: Adobe Illustrator 16.0.0, SVG Export Plug-In . SVG Version: 6.00 Build 0)  -->
<!DOCTYPE svg PUBLIC "-//W3C//DTD SVG 1.1//EN" "http://www.w3.org/Graphics/SVG/1.1/DTD/svg11.dtd">
<svg version="1.1" id="Layer_1" xmlns="http://www.w3.org/2000/svg" xmlns:xlink="http://www.w3.org/1999/xlink" x="0px" y="0px"
	 width="91.514px" height="33.779px" viewBox="0 0 91.514 33.779" enable-background="new 0 0 91.514 33.779" xml:space="preserve">
<g>
	<g>
		<path fill="none" stroke="#FFFFFF" stroke-width="2" stroke-miterlimit="10" d="M31.834,29.795c0,1.648-1.336,2.984-2.984,2.984
			H3.984C2.336,32.779,1,31.443,1,29.795v-9.449c0-1.647,1.336-2.983,2.984-2.983H28.85c1.648,0,2.984,1.336,2.984,2.983V29.795z"/>
		<circle fill="#FFFFFF" cx="16.417" cy="25.07" r="5.417"/>
		<g>
			<g>
				<path fill="#6D6E70" d="M16.711,28.184v1.008h-0.909V28.22c-0.864-0.027-1.54-0.252-2.125-0.847l0.811-0.81
					c0.378,0.378,0.891,0.522,1.432,0.54v-1.629l-0.288-0.036c-0.54-0.072-0.973-0.27-1.243-0.54
					c-0.306-0.306-0.459-0.711-0.459-1.251c0-1.035,0.702-1.8,1.873-1.926v-0.811h0.909v0.801c0.729,0.045,1.287,0.27,1.773,0.738
					l-0.792,0.783c-0.297-0.288-0.738-0.405-1.107-0.432v1.566l0.342,0.054c0.585,0.09,0.954,0.252,1.225,0.504
					c0.342,0.324,0.495,0.783,0.495,1.35C18.646,27.373,17.836,28.048,16.711,28.184z M15.919,22.809
					c-0.522,0.072-0.783,0.396-0.783,0.792c0,0.162,0.054,0.333,0.188,0.459c0.145,0.135,0.343,0.216,0.595,0.252V22.809z
					 M17.224,25.771c-0.18-0.171-0.404-0.198-0.639-0.234v1.548c0.54-0.063,0.837-0.333,0.837-0.774
					C17.422,26.086,17.359,25.897,17.224,25.771z"/>
			</g>
		</g>
		<line fill="none" stroke="#FFFFFF" stroke-miterlimit="10" x1="4.707" y1="22.904" x2="10" y2="22.904"/>
		<line fill="none" stroke="#FFFFFF" stroke-miterlimit="10" x1="4.707" y1="25.07" x2="10" y2="25.07"/>
		<line fill="none" stroke="#FFFFFF" stroke-miterlimit="10" x1="4.707" y1="27.236" x2="10" y2="27.236"/>
		<line fill="none" stroke="#FFFFFF" stroke-miterlimit="10" x1="23.207" y1="22.904" x2="28.5" y2="22.904"/>
		<line fill="none" stroke="#FFFFFF" stroke-miterlimit="10" x1="23.207" y1="25.07" x2="28.5" y2="25.07"/>
		<line fill="none" stroke="#FFFFFF" stroke-miterlimit="10" x1="23.207" y1="27.236" x2="28.5" y2="27.236"/>
	</g>
	<g>
		<path fill="none" stroke="#FFFFFF" stroke-width="2" stroke-miterlimit="10" d="M90.514,29.795c0,1.648-1.336,2.984-2.984,2.984
			H62.664c-1.648,0-2.984-1.336-2.984-2.984v-9.449c0-1.647,1.336-2.983,2.984-2.983h24.865c1.648,0,2.984,1.336,2.984,2.983V29.795
			z"/>
		<circle fill="#FFFFFF" cx="75.097" cy="25.07" r="5.417"/>
		<g>
			<g>
				<path fill="#6D6E70" d="M75.393,28.184v1.008h-0.909V28.22c-0.864-0.027-1.54-0.252-2.125-0.847l0.811-0.81
					c0.378,0.378,0.891,0.522,1.432,0.54v-1.629l-0.288-0.036c-0.54-0.072-0.973-0.27-1.243-0.54
					c-0.306-0.306-0.459-0.711-0.459-1.251c0-1.035,0.702-1.8,1.873-1.926v-0.811h0.909v0.801c0.729,0.045,1.287,0.27,1.773,0.738
					l-0.792,0.783c-0.297-0.288-0.738-0.405-1.107-0.432v1.566l0.342,0.054c0.585,0.09,0.954,0.252,1.225,0.504
					c0.342,0.324,0.495,0.783,0.495,1.35C77.328,27.373,76.518,28.048,75.393,28.184z M74.601,22.809
					c-0.522,0.072-0.783,0.396-0.783,0.792c0,0.162,0.054,0.333,0.188,0.459c0.145,0.135,0.343,0.216,0.595,0.252V22.809z
					 M75.905,25.771c-0.18-0.171-0.404-0.198-0.639-0.234v1.548c0.54-0.063,0.837-0.333,0.837-0.774
					C76.104,26.086,76.041,25.897,75.905,25.771z"/>
			</g>
		</g>
		<line fill="none" stroke="#FFFFFF" stroke-miterlimit="10" x1="63.387" y1="22.904" x2="68.68" y2="22.904"/>
		<line fill="none" stroke="#FFFFFF" stroke-miterlimit="10" x1="63.387" y1="25.07" x2="68.68" y2="25.07"/>
		<line fill="none" stroke="#FFFFFF" stroke-miterlimit="10" x1="63.387" y1="27.236" x2="68.68" y2="27.236"/>
		<line fill="none" stroke="#FFFFFF" stroke-miterlimit="10" x1="81.887" y1="22.904" x2="87.18" y2="22.904"/>
		<line fill="none" stroke="#FFFFFF" stroke-miterlimit="10" x1="81.887" y1="25.07" x2="87.18" y2="25.07"/>
		<line fill="none" stroke="#FFFFFF" stroke-miterlimit="10" x1="81.887" y1="27.236" x2="87.18" y2="27.236"/>
	</g>
	<g>
		<path fill="#FFFFFF" d="M15.686,8.456V0h1.463v8.455l3.887-3.922v1.967l-4.619,4.617l-4.617-4.617V4.534L15.686,8.456z"/>
	</g>
	<g>
		<path fill="#FFFFFF" d="M75.828,2.662v8.455h-1.463V2.662l-3.887,3.922V4.617L75.098,0l4.617,4.617v1.967L75.828,2.662z"/>
	</g>
	<g>
		<path fill="#FFFFFF" d="M50.223,26.049h-8.455v-1.463h8.455l-3.922-3.887h1.967l4.617,4.619l-4.617,4.617h-1.967L50.223,26.049z"
			/>
	</g>
</g>
</svg>
