<?xml version="1.0" encoding="utf-8"?>
<!-- Generator: Adobe Illustrator 16.0.0, SVG Export Plug-In . SVG Version: 6.00 Build 0)  -->
<!DOCTYPE svg PUBLIC "-//W3C//DTD SVG 1.1//EN" "http://www.w3.org/Graphics/SVG/1.1/DTD/svg11.dtd">
<svg version="1.1" id="Layer_1" xmlns="http://www.w3.org/2000/svg" xmlns:xlink="http://www.w3.org/1999/xlink" x="0px" y="0px"
	 width="32.834px" height="33.78px" viewBox="0 0 32.834 33.78" enable-background="new 0 0 32.834 33.78" xml:space="preserve">
<g>
	<g>
		<path fill="none" stroke="#FFFFFF" stroke-width="2" stroke-miterlimit="10" d="M31.834,29.795c0,1.648-1.336,2.984-2.984,2.984
			H3.984C2.336,32.78,1,31.444,1,29.795v-9.449c0-1.647,1.336-2.983,2.984-2.983H28.85c1.648,0,2.984,1.336,2.984,2.983V29.795z"/>
		<circle fill="#FFFFFF" cx="16.417" cy="25.071" r="5.417"/>
		<g>
			<g>
				<path fill="#6D6E70" d="M16.712,28.184v1.008h-0.909V28.22c-0.864-0.027-1.54-0.252-2.125-0.847l0.811-0.81
					c0.378,0.378,0.891,0.522,1.432,0.54v-1.629l-0.288-0.036c-0.54-0.072-0.973-0.27-1.243-0.54
					c-0.306-0.306-0.459-0.711-0.459-1.251c0-1.035,0.702-1.8,1.873-1.926V20.91h0.909v0.801c0.729,0.045,1.287,0.27,1.773,0.738
					l-0.792,0.783c-0.297-0.288-0.738-0.405-1.107-0.432v1.566l0.342,0.054c0.585,0.09,0.954,0.252,1.225,0.504
					c0.342,0.324,0.495,0.783,0.495,1.35C18.647,27.374,17.837,28.049,16.712,28.184z M15.92,22.81
					c-0.522,0.072-0.783,0.396-0.783,0.792c0,0.162,0.054,0.333,0.188,0.459c0.145,0.135,0.343,0.216,0.595,0.252V22.81z
					 M17.225,25.771c-0.18-0.171-0.404-0.198-0.639-0.234v1.548c0.54-0.063,0.837-0.333,0.837-0.774
					C17.423,26.086,17.36,25.897,17.225,25.771z"/>
			</g>
		</g>
		<line fill="none" stroke="#FFFFFF" stroke-miterlimit="10" x1="4.707" y1="22.905" x2="10" y2="22.905"/>
		<line fill="none" stroke="#FFFFFF" stroke-miterlimit="10" x1="4.707" y1="25.071" x2="10" y2="25.071"/>
		<line fill="none" stroke="#FFFFFF" stroke-miterlimit="10" x1="4.707" y1="27.237" x2="10" y2="27.237"/>
		<line fill="none" stroke="#FFFFFF" stroke-miterlimit="10" x1="23.207" y1="22.905" x2="28.5" y2="22.905"/>
		<line fill="none" stroke="#FFFFFF" stroke-miterlimit="10" x1="23.207" y1="25.071" x2="28.5" y2="25.071"/>
		<line fill="none" stroke="#FFFFFF" stroke-miterlimit="10" x1="23.207" y1="27.237" x2="28.5" y2="27.237"/>
	</g>
	<g>
		<path fill="#FFFFFF" d="M17.15,2.663v8.455h-1.463V2.663l-3.887,3.922V4.617L16.42,0l4.617,4.617v1.967L17.15,2.663z"/>
	</g>
</g>
</svg>
