<?xml version="1.0" encoding="utf-8"?>
<!-- Generator: Adobe Illustrator 16.0.0, SVG Export Plug-In . SVG Version: 6.00 Build 0)  -->
<!DOCTYPE svg PUBLIC "-//W3C//DTD SVG 1.1//EN" "http://www.w3.org/Graphics/SVG/1.1/DTD/svg11.dtd">
<svg version="1.1" id="Layer_1" xmlns="http://www.w3.org/2000/svg" xmlns:xlink="http://www.w3.org/1999/xlink" x="0px" y="0px"
	 width="25.704px" height="34.779px" viewBox="0 0 25.704 34.779" enable-background="new 0 0 25.704 34.779" xml:space="preserve">
<g>
	<path fill="#FFFFFF" stroke="#FFFFFF" stroke-width="2" stroke-miterlimit="10" d="M4.708,9.334h17.468
		c1.396,0,2.528,1.132,2.528,2.528V31.25c0,1.396-1.133,2.528-2.528,2.528H3.528C2.132,33.779,1,32.646,1,31.25V5.862"/>
	<path fill="none" stroke="#FFFFFF" stroke-width="2" stroke-miterlimit="10" d="M5.167,9.334C2.865,9.334,1,7.468,1,5.167
		S2.865,1,5.167,1h19.537"/>
	<line fill="none" stroke="#FFFFFF" stroke-miterlimit="10" x1="4.312" y1="3.487" x2="24.704" y2="3.487"/>
	<line fill="none" stroke="#FFFFFF" stroke-miterlimit="10" x1="4.312" y1="5.167" x2="24.704" y2="5.167"/>
	<line fill="none" stroke="#FFFFFF" stroke-miterlimit="10" x1="4.312" y1="6.847" x2="24.704" y2="6.847"/>
	<g>
		<path fill="#6D6E70" d="M14.828,26.317l-4.097-6.348v6.348H8.713V15.974h1.801l4.097,6.333v-6.333h2.02v10.343H14.828z"/>
	</g>
</g>
</svg>
