<?xml version="1.0" encoding="utf-8"?>
<!-- Generator: Adobe Illustrator 16.0.0, SVG Export Plug-In . SVG Version: 6.00 Build 0)  -->
<!DOCTYPE svg PUBLIC "-//W3C//DTD SVG 1.1//EN" "http://www.w3.org/Graphics/SVG/1.1/DTD/svg11.dtd">
<svg version="1.1" id="Layer_1" xmlns="http://www.w3.org/2000/svg" xmlns:xlink="http://www.w3.org/1999/xlink" x="0px" y="0px"
	 width="120.834px" height="33.78px" viewBox="0 0 120.834 33.78" enable-background="new 0 0 120.834 33.78" xml:space="preserve">
<g>
	<g>
		<path fill="none" stroke="#FFFFFF" stroke-width="2" stroke-miterlimit="10" d="M31.834,29.795c0,1.648-1.336,2.984-2.984,2.984
			H3.984C2.336,32.78,1,31.444,1,29.795v-9.449c0-1.647,1.336-2.983,2.984-2.983H28.85c1.648,0,2.984,1.336,2.984,2.983V29.795z"/>
		<circle fill="#FFFFFF" cx="16.417" cy="25.071" r="5.417"/>
		<g>
			<g>
				<path fill="#6D6E70" d="M16.712,28.184v1.008h-0.909V28.22c-0.864-0.027-1.54-0.252-2.125-0.847l0.811-0.81
					c0.378,0.378,0.891,0.522,1.432,0.54v-1.629l-0.288-0.036c-0.54-0.072-0.973-0.27-1.243-0.54
					c-0.306-0.306-0.459-0.711-0.459-1.251c0-1.035,0.702-1.8,1.873-1.926V20.91h0.909v0.801c0.729,0.045,1.287,0.27,1.773,0.738
					l-0.792,0.783c-0.297-0.288-0.738-0.405-1.107-0.432v1.566l0.342,0.054c0.585,0.09,0.954,0.252,1.225,0.504
					c0.342,0.324,0.495,0.783,0.495,1.35C18.647,27.374,17.837,28.049,16.712,28.184z M15.92,22.81
					c-0.522,0.072-0.783,0.396-0.783,0.792c0,0.162,0.054,0.333,0.188,0.459c0.145,0.135,0.343,0.216,0.595,0.252V22.81z
					 M17.225,25.771c-0.18-0.171-0.404-0.198-0.639-0.234v1.548c0.54-0.063,0.837-0.333,0.837-0.774
					C17.423,26.086,17.36,25.897,17.225,25.771z"/>
			</g>
		</g>
		<line fill="none" stroke="#FFFFFF" stroke-miterlimit="10" x1="4.707" y1="22.905" x2="10" y2="22.905"/>
		<line fill="none" stroke="#FFFFFF" stroke-miterlimit="10" x1="4.707" y1="25.071" x2="10" y2="25.071"/>
		<line fill="none" stroke="#FFFFFF" stroke-miterlimit="10" x1="4.707" y1="27.237" x2="10" y2="27.237"/>
		<line fill="none" stroke="#FFFFFF" stroke-miterlimit="10" x1="23.207" y1="22.905" x2="28.5" y2="22.905"/>
		<line fill="none" stroke="#FFFFFF" stroke-miterlimit="10" x1="23.207" y1="25.071" x2="28.5" y2="25.071"/>
		<line fill="none" stroke="#FFFFFF" stroke-miterlimit="10" x1="23.207" y1="27.237" x2="28.5" y2="27.237"/>
	</g>
	<g>
		<path fill="#FFFFFF" d="M15.686,8.456V0.001h1.463v8.455l3.887-3.922v1.967l-4.619,4.617l-4.617-4.617V4.534L15.686,8.456z"/>
	</g>
	<g>
		<path fill="none" stroke="#FFFFFF" stroke-width="2" stroke-miterlimit="10" d="M119.834,29.795c0,1.648-1.336,2.984-2.984,2.984
			H91.984c-1.648,0-2.984-1.336-2.984-2.984v-9.449c0-1.647,1.336-2.983,2.984-2.983h24.865c1.648,0,2.984,1.336,2.984,2.983V29.795
			z"/>
		<circle fill="#FFFFFF" cx="104.417" cy="25.071" r="5.417"/>
		<g>
			<g>
				<path fill="#6D6E70" d="M104.712,28.184v1.008h-0.909V28.22c-0.864-0.027-1.54-0.252-2.125-0.847l0.811-0.81
					c0.378,0.378,0.891,0.522,1.432,0.54v-1.629l-0.288-0.036c-0.54-0.072-0.973-0.27-1.243-0.54
					c-0.306-0.306-0.459-0.711-0.459-1.251c0-1.035,0.702-1.8,1.873-1.926V20.91h0.909v0.801c0.729,0.045,1.287,0.27,1.773,0.738
					l-0.792,0.783c-0.297-0.288-0.738-0.405-1.107-0.432v1.566l0.342,0.054c0.585,0.09,0.954,0.252,1.225,0.504
					c0.342,0.324,0.495,0.783,0.495,1.35C106.647,27.374,105.837,28.049,104.712,28.184z M103.92,22.81
					c-0.522,0.072-0.783,0.396-0.783,0.792c0,0.162,0.054,0.333,0.188,0.459c0.145,0.135,0.343,0.216,0.595,0.252V22.81z
					 M105.225,25.771c-0.18-0.171-0.404-0.198-0.639-0.234v1.548c0.54-0.063,0.837-0.333,0.837-0.774
					C105.423,26.086,105.36,25.897,105.225,25.771z"/>
			</g>
		</g>
		<line fill="none" stroke="#FFFFFF" stroke-miterlimit="10" x1="92.707" y1="22.905" x2="98" y2="22.905"/>
		<line fill="none" stroke="#FFFFFF" stroke-miterlimit="10" x1="92.707" y1="25.071" x2="98" y2="25.071"/>
		<line fill="none" stroke="#FFFFFF" stroke-miterlimit="10" x1="92.707" y1="27.237" x2="98" y2="27.237"/>
		<line fill="none" stroke="#FFFFFF" stroke-miterlimit="10" x1="111.207" y1="22.905" x2="116.5" y2="22.905"/>
		<line fill="none" stroke="#FFFFFF" stroke-miterlimit="10" x1="111.207" y1="25.071" x2="116.5" y2="25.071"/>
		<line fill="none" stroke="#FFFFFF" stroke-miterlimit="10" x1="111.207" y1="27.237" x2="116.5" y2="27.237"/>
	</g>
	<g>
		<path fill="#FFFFFF" d="M105.15,2.663v8.455h-1.463V2.663l-3.887,3.922V4.617L104.42,0l4.617,4.617v1.967L105.15,2.663z"/>
	</g>
	<g>
		<circle fill="none" stroke="#FFFFFF" stroke-width="2" stroke-miterlimit="10" cx="60.375" cy="19.7" r="12.041"/>
		<line fill="none" stroke="#FFFFFF" stroke-miterlimit="10" x1="60.375" y1="31.018" x2="60.375" y2="28.269"/>
		<line fill="none" stroke="#FFFFFF" stroke-miterlimit="10" x1="60.375" y1="11.074" x2="60.375" y2="8.325"/>
		<line fill="none" stroke="#FFFFFF" stroke-miterlimit="10" x1="49.028" y1="19.671" x2="51.778" y2="19.671"/>
		<line fill="none" stroke="#FFFFFF" stroke-miterlimit="10" x1="68.972" y1="19.671" x2="71.722" y2="19.671"/>
		<line fill="none" stroke="#FFFFFF" stroke-miterlimit="10" x1="52.352" y1="11.649" x2="54.296" y2="13.593"/>
		<line fill="none" stroke="#FFFFFF" stroke-miterlimit="10" x1="66.452" y1="25.751" x2="68.398" y2="27.695"/>
		<line fill="none" stroke="#FFFFFF" stroke-miterlimit="10" x1="68.396" y1="11.649" x2="66.451" y2="13.593"/>
		<line fill="none" stroke="#FFFFFF" stroke-miterlimit="10" x1="54.295" y1="25.75" x2="52.351" y2="27.696"/>
		<line fill="none" stroke="#FFFFFF" stroke-miterlimit="10" x1="60.473" y1="20.139" x2="65.577" y2="15.035"/>
		<line fill="none" stroke="#FFFFFF" stroke-miterlimit="10" x1="59.765" y1="20.139" x2="65.259" y2="20.139"/>
	</g>
</g>
</svg>
