<?xml version="1.0" encoding="utf-8"?>
<!-- Generator: Adobe Illustrator 16.0.0, SVG Export Plug-In . SVG Version: 6.00 Build 0)  -->
<!DOCTYPE svg PUBLIC "-//W3C//DTD SVG 1.1//EN" "http://www.w3.org/Graphics/SVG/1.1/DTD/svg11.dtd">
<svg version="1.1" id="Layer_1" xmlns="http://www.w3.org/2000/svg" xmlns:xlink="http://www.w3.org/1999/xlink" x="0px" y="0px"
	 width="52.172px" height="20.055px" viewBox="0 0 52.172 20.055" enable-background="new 0 0 52.172 20.055" xml:space="preserve">
<g>
	<g>
		<circle fill="#BBBDBF" cx="6.834" cy="4.388" r="4.389"/>
		<path fill="#BBBDBF" d="M13.633,20.055c0.01-0.112,0.033-0.219,0.033-0.333v-5.667c0-2.209-1.789-4-4-4H4c-2.209,0-4,1.791-4,4
			v5.667c0,0.114,0.025,0.221,0.035,0.333H13.633z"/>
	</g>
	<g>
		<circle fill="#FFFFFF" cx="45.338" cy="4.388" r="4.389"/>
		<path fill="#FFFFFF" d="M52.139,20.055c0.008-0.112,0.033-0.219,0.033-0.333v-5.667c0-2.209-1.791-4-4-4h-5.668
			c-2.209,0-4,1.791-4,4v5.667c0,0.114,0.025,0.221,0.035,0.333H52.139z"/>
	</g>
	<g>
		<g>
			<path fill="#BBBDBF" d="M28.787,5.35H20.33l0.002-1.463l8.455-0.001L24.863,0h1.969l4.615,4.619l-4.615,4.617h-1.969L28.787,5.35
				z"/>
		</g>
	</g>
	<g>
		<g>
			<path fill="#FFFFFF" d="M22.992,14.706h8.455v1.463l-8.455,0.001l3.924,3.886h-1.969l-4.617-4.619l4.617-4.617h1.969
				L22.992,14.706z"/>
		</g>
	</g>
</g>
</svg>
