<?xml version="1.0" encoding="utf-8"?>
<!-- Generator: Adobe Illustrator 16.0.0, SVG Export Plug-In . SVG Version: 6.00 Build 0)  -->
<!DOCTYPE svg PUBLIC "-//W3C//DTD SVG 1.1//EN" "http://www.w3.org/Graphics/SVG/1.1/DTD/svg11.dtd">
<svg version="1.1" id="Layer_1" xmlns="http://www.w3.org/2000/svg" xmlns:xlink="http://www.w3.org/1999/xlink" x="0px" y="0px"
	 width="28.776px" height="28.773px" viewBox="0 0 28.776 28.773" enable-background="new 0 0 28.776 28.773" xml:space="preserve">
<g>
	<path fill="#A6A8AB" d="M4.241,4.187C4.229,4.198,4.22,4.207,4.208,4.218C-1.407,9.841-1.403,18.95,4.222,24.565
		c5.623,5.615,14.732,5.61,20.35-0.013c0.006-0.006,0.01-0.013,0.016-0.019L4.241,4.187z"/>
	<path fill="#808184" d="M24.472,4.127L14.325,14.271l10.262,10.262c5.598-5.625,5.586-14.721-0.031-20.33
		C24.528,4.176,24.497,4.153,24.472,4.127z"/>
	<path fill="#FFFFFF" d="M24.472,4.127c-5.619-5.522-14.639-5.503-20.23,0.06l10.084,10.084L24.472,4.127z"/>
</g>
</svg>
