<?xml version="1.0" encoding="utf-8"?>
<!-- Generator: Adobe Illustrator 16.0.0, SVG Export Plug-In . SVG Version: 6.00 Build 0)  -->
<!DOCTYPE svg PUBLIC "-//W3C//DTD SVG 1.1//EN" "http://www.w3.org/Graphics/SVG/1.1/DTD/svg11.dtd">
<svg version="1.1" id="Layer_1" xmlns="http://www.w3.org/2000/svg" xmlns:xlink="http://www.w3.org/1999/xlink" x="0px" y="0px"
	 width="40.75px" height="15.19px" viewBox="0 0 40.75 15.19" enable-background="new 0 0 40.75 15.19" xml:space="preserve">
<g>
	<g>
		<path fill="#FFFFFF" d="M21.282,5.232H17.55c-1.443,0-2.617-1.173-2.617-2.616S16.106,0,17.55,0v1.5
			c-0.616,0-1.117,0.501-1.117,1.116s0.501,1.116,1.117,1.116h3.732V5.232z"/>
	</g>
	<g>
		<path fill="#FFFFFF" d="M27.417,15.19H14.438c-0.166,0-0.333-0.015-0.499-0.044h-6.23c-1.318,0-2.39-1.071-2.39-2.387
			c0-0.402,0.1-0.78,0.276-1.113H5.039c-1.317,0-2.389-1.072-2.389-2.389c0-0.442,0.121-0.856,0.332-1.212H2.773
			C1.244,8.046,0,6.975,0,5.658c0-1.316,1.244-2.387,2.773-2.387h0.047C2.71,2.995,2.65,2.696,2.65,2.388
			C2.65,1.071,3.722,0,5.039,0h22.378c1.589,0,2.882,1.293,2.882,2.883v9.424C30.299,13.897,29.006,15.19,27.417,15.19z
			 M7.709,11.873c-0.491,0-0.89,0.398-0.89,0.887s0.399,0.887,0.89,0.887l6.452,0.015c0.091,0.019,0.187,0.029,0.277,0.029h12.979
			c0.762,0,1.382-0.621,1.382-1.383V2.883c0-0.763-0.62-1.383-1.382-1.383H5.039c-0.49,0-0.889,0.398-0.889,0.888
			c0,0.317,0.172,0.608,0.445,0.765c0.429,0.029,2.174,0.07,7.678,0.114l0.581,0.005l-0.015,1.5H2.773
			c-0.69,0-1.273,0.406-1.273,0.887c0,0.481,0.583,0.888,1.273,0.888h10.282v1.825H5.039c-0.49,0-0.889,0.398-0.889,0.887
			c0,0.49,0.398,0.889,0.889,0.889h8.017v1.726H7.709z"/>
	</g>
	<g>
		<polygon fill="#FFFFFF" points="40.75,14.433 28.799,14.433 28.799,0.8 40.75,0.8 40.75,2.3 30.299,2.3 30.299,12.933 
			40.75,12.933 		"/>
	</g>
	<g>
		<path fill="#FFFFFF" d="M23.327,8.078c-1.981,0-3.593-1.613-3.593-3.596h1.5c0,1.156,0.939,2.096,2.093,2.096V8.078z"/>
	</g>
	<g>
		<rect x="34.88" y="1.55" fill="#FFFFFF" width="1.5" height="12.132"/>
	</g>
	<g>
		<circle fill="#FFFFFF" cx="32.592" cy="4.482" r="1.343"/>
	</g>
</g>
</svg>
