<?xml version="1.0" encoding="utf-8"?>
<!-- Generator: Adobe Illustrator 16.0.0, SVG Export Plug-In . SVG Version: 6.00 Build 0)  -->
<!DOCTYPE svg PUBLIC "-//W3C//DTD SVG 1.1//EN" "http://www.w3.org/Graphics/SVG/1.1/DTD/svg11.dtd">
<svg version="1.1" id="Layer_1" xmlns="http://www.w3.org/2000/svg" xmlns:xlink="http://www.w3.org/1999/xlink" x="0px" y="0px"
	 width="21.107px" height="26.385px" viewBox="0 0 21.107 26.385" enable-background="new 0 0 21.107 26.385" xml:space="preserve">
<g>
	<path fill="#FFFFFF" d="M21.107,24.274c0,1.166-0.943,2.111-2.109,2.111H2.111C0.945,26.385,0,25.44,0,24.274V2.111
		C0,0.945,0.945,0,2.111,0h16.887c1.166,0,2.109,0.945,2.109,2.111V24.274z"/>
	<g>
		<polygon fill="#929497" points="4.973,21.355 5.861,16.2 9.516,18.506 		"/>
		
			<rect x="8.953" y="5.51" transform="matrix(0.8457 0.5336 -0.5336 0.8457 8.0787 -4.0902)" fill="#BBBDBF" width="4.321" height="12.833"/>
		<path fill="#808184" d="M16.229,3.822c-1.01-0.637-2.344-0.335-2.979,0.674l-0.538,0.852l3.654,2.306l0.537-0.851
			C17.539,5.793,17.237,4.459,16.229,3.822z"/>
	</g>
</g>
</svg>
