<?xml version="1.0" encoding="utf-8"?>
<!-- Generator: Adobe Illustrator 16.0.0, SVG Export Plug-In . SVG Version: 6.00 Build 0)  -->
<!DOCTYPE svg PUBLIC "-//W3C//DTD SVG 1.1//EN" "http://www.w3.org/Graphics/SVG/1.1/DTD/svg11.dtd">
<svg version="1.1" id="Layer_1" xmlns="http://www.w3.org/2000/svg" xmlns:xlink="http://www.w3.org/1999/xlink" x="0px" y="0px"
	 width="73.648px" height="18.975px" viewBox="0 0 73.648 18.975" enable-background="new 0 0 73.648 18.975" xml:space="preserve">
<rect fill="#E6E7E8" width="73.648" height="18.975"/>
<g>
	<path fill="#6D6E70" d="M5.451,12.403l3.97-4.962H5.742V6.672h4.807v0.751l-3.993,4.935h3.993v0.77H5.451V12.403z"/>
	<path fill="#6D6E70" d="M16.836,7.594c0.428,0.572,0.642,1.303,0.642,2.193c0,0.964-0.245,1.766-0.734,2.404
		c-0.574,0.75-1.393,1.125-2.456,1.125c-0.993,0-1.774-0.328-2.343-0.984c-0.507-0.633-0.76-1.434-0.76-2.4
		c0-0.872,0.217-1.619,0.65-2.24c0.557-0.797,1.38-1.195,2.47-1.195C15.444,6.497,16.288,6.863,16.836,7.594z M16.064,11.709
		c0.344-0.553,0.517-1.188,0.517-1.906c0-0.76-0.198-1.371-0.596-1.834c-0.397-0.464-0.939-0.695-1.628-0.695
		c-0.668,0-1.213,0.229-1.635,0.688S12.09,9.098,12.09,9.992c0,0.716,0.181,1.319,0.543,1.811c0.361,0.491,0.948,0.736,1.76,0.736
		C15.163,12.539,15.721,12.262,16.064,11.709z"/>
	<path fill="#6D6E70" d="M23.926,7.594c0.428,0.572,0.642,1.303,0.642,2.193c0,0.964-0.244,1.766-0.733,2.404
		c-0.574,0.75-1.394,1.125-2.457,1.125c-0.993,0-1.773-0.328-2.342-0.984c-0.507-0.633-0.761-1.434-0.761-2.4
		c0-0.872,0.217-1.619,0.65-2.24c0.557-0.797,1.38-1.195,2.47-1.195C22.534,6.497,23.378,6.863,23.926,7.594z M23.154,11.709
		c0.345-0.553,0.517-1.188,0.517-1.906c0-0.76-0.198-1.371-0.595-1.834c-0.397-0.464-0.94-0.695-1.629-0.695
		c-0.668,0-1.213,0.229-1.635,0.688S19.18,9.098,19.18,9.992c0,0.716,0.182,1.319,0.543,1.811s0.948,0.736,1.76,0.736
		C22.253,12.539,22.811,12.262,23.154,11.709z"/>
	<path fill="#6D6E70" d="M25.678,6.672h1.252l1.856,5.457l1.843-5.457h1.244v6.455h-0.834V9.317c0-0.131,0.002-0.35,0.008-0.654
		s0.01-0.631,0.01-0.98l-1.844,5.445h-0.866l-1.86-5.445V7.88c0,0.158,0.004,0.399,0.013,0.723c0.009,0.324,0.013,0.562,0.013,0.714
		v3.811h-0.834V6.672z"/>
</g>
<circle fill="#A6A8AB" cx="46.026" cy="9.428" r="5.499"/>
<circle fill="#A6A8AB" cx="63.654" cy="9.428" r="5.5"/>
<g>
	<path fill="#FFFFFF" d="M46.723,10.117v2.464H45.33v-2.464h-2.465V8.724h2.465V6.274h1.393v2.449h2.465v1.394H46.723z"/>
</g>
<g>
	<path fill="#FFFFFF" d="M61.514,10.124V8.731h4.283v1.393H61.514z"/>
</g>
</svg>
