<?xml version="1.0" encoding="utf-8"?>
<!-- Generator: Adobe Illustrator 16.0.0, SVG Export Plug-In . SVG Version: 6.00 Build 0)  -->
<!DOCTYPE svg PUBLIC "-//W3C//DTD SVG 1.1//EN" "http://www.w3.org/Graphics/SVG/1.1/DTD/svg11.dtd">
<svg version="1.1" id="Layer_1" xmlns="http://www.w3.org/2000/svg" xmlns:xlink="http://www.w3.org/1999/xlink" x="0px" y="0px"
	 width="31.215px" height="26.545px" viewBox="0 0 31.215 26.545" enable-background="new 0 0 31.215 26.545" xml:space="preserve">
<rect fill="#D0D2D3" width="31.215" height="26.545"/>
<g>
	<path fill="#808184" d="M23.008,21.043c0,0.817-0.662,1.48-1.479,1.48H9.688c-0.817,0-1.48-0.663-1.48-1.48V5.501
		c0-0.817,0.663-1.48,1.48-1.48H21.53c0.816,0,1.479,0.663,1.479,1.48V21.043z"/>
	<g>
		<path fill="#FFFFFF" d="M9.867,15.749v-0.976h0.977v0.976H9.867z"/>
		<path fill="#FFFFFF" d="M13.842,15.749v-0.432c-0.303,0.368-0.631,0.479-1.07,0.479c-0.408,0-0.768-0.136-0.992-0.36
			c-0.408-0.408-0.455-1.103-0.455-1.719s0.047-1.303,0.455-1.711c0.225-0.224,0.576-0.359,0.982-0.359
			c0.434,0,0.768,0.104,1.064,0.456v-2.047h0.816v5.693H13.842z M12.986,12.375c-0.736,0-0.848,0.624-0.848,1.343
			c0,0.719,0.111,1.351,0.848,1.351s0.84-0.632,0.84-1.351C13.826,12.998,13.723,12.375,12.986,12.375z"/>
		<path fill="#FFFFFF" d="M18.051,15.317c-0.264,0.271-0.664,0.479-1.217,0.479c-0.551,0-0.943-0.208-1.207-0.479
			c-0.383-0.4-0.479-0.912-0.479-1.599c0-0.68,0.096-1.191,0.479-1.591c0.264-0.272,0.656-0.479,1.207-0.479
			c0.553,0,0.954,0.208,1.217,0.479c0.383,0.4,0.479,0.912,0.479,1.591C18.53,14.405,18.434,14.917,18.051,15.317z M17.434,12.606
			c-0.15-0.152-0.359-0.232-0.6-0.232c-0.238,0-0.439,0.08-0.592,0.232c-0.246,0.248-0.279,0.671-0.279,1.111
			c0,0.439,0.033,0.863,0.279,1.111c0.152,0.152,0.354,0.24,0.592,0.24c0.241,0,0.45-0.088,0.6-0.24
			c0.248-0.248,0.281-0.672,0.281-1.111C17.715,13.278,17.682,12.854,17.434,12.606z"/>
		<path fill="#FFFFFF" d="M20.635,15.796c-0.912,0-1.809-0.56-1.809-2.079s0.896-2.071,1.809-2.071c0.559,0,0.951,0.16,1.334,0.567
			l-0.559,0.544c-0.256-0.28-0.457-0.384-0.775-0.384c-0.312,0-0.576,0.128-0.752,0.36c-0.176,0.224-0.24,0.512-0.24,0.983
			s0.064,0.768,0.24,0.991c0.176,0.232,0.439,0.36,0.752,0.36c0.318,0,0.52-0.104,0.775-0.384l0.559,0.536
			C21.586,15.628,21.194,15.796,20.635,15.796z"/>
	</g>
</g>
</svg>
