<?xml version="1.0" encoding="utf-8"?>
<!-- Generator: Adobe Illustrator 16.0.0, SVG Export Plug-In . SVG Version: 6.00 Build 0)  -->
<!DOCTYPE svg PUBLIC "-//W3C//DTD SVG 1.1//EN" "http://www.w3.org/Graphics/SVG/1.1/DTD/svg11.dtd">
<svg version="1.1" id="Layer_1" xmlns="http://www.w3.org/2000/svg" xmlns:xlink="http://www.w3.org/1999/xlink" x="0px" y="0px"
	 width="31.215px" height="26.545px" viewBox="0 0 31.215 26.545" enable-background="new 0 0 31.215 26.545" xml:space="preserve">
<g>
	<rect fill="#E6E7E8" width="31.215" height="26.545"/>
	<g>
		<path fill="#FFFFFF" d="M22.234,20.231c0,0.731-0.592,1.325-1.324,1.325H10.307c-0.732,0-1.326-0.594-1.326-1.325V6.313
			c0-0.732,0.594-1.326,1.326-1.326H20.91c0.732,0,1.324,0.594,1.324,1.326V20.231z"/>
		<g>
			<polygon fill="#929497" points="12.104,18.398 12.66,15.161 14.955,16.609 			"/>
			
				<rect x="14.602" y="8.448" transform="matrix(0.8457 0.5337 -0.5337 0.8457 9.1219 -6.5915)" fill="#BBBDBF" width="2.714" height="8.06"/>
			<path fill="#808184" d="M19.172,7.388c-0.635-0.4-1.473-0.21-1.871,0.423l-0.338,0.535l2.295,1.448l0.336-0.535
				C19.994,8.626,19.805,7.788,19.172,7.388z"/>
		</g>
	</g>
</g>
</svg>
