<?xml version="1.0" encoding="utf-8"?>
<!-- Generator: Adobe Illustrator 16.0.0, SVG Export Plug-In . SVG Version: 6.00 Build 0)  -->
<!DOCTYPE svg PUBLIC "-//W3C//DTD SVG 1.1//EN" "http://www.w3.org/Graphics/SVG/1.1/DTD/svg11.dtd">
<svg version="1.1" id="Layer_1" xmlns="http://www.w3.org/2000/svg" xmlns:xlink="http://www.w3.org/1999/xlink" x="0px" y="0px"
	 width="31.215px" height="26.545px" viewBox="0 0 31.215 26.545" enable-background="new 0 0 31.215 26.545" xml:space="preserve">
<rect fill="#D0D2D3" width="31.215" height="26.545"/>
<g>
	<g>
		<path fill="#FFFFFF" d="M21.768,18.91c0,0.68-0.553,1.232-1.232,1.232H10.68c-0.68,0-1.232-0.552-1.232-1.232V5.973
			c0-0.68,0.553-1.231,1.232-1.231h9.856c0.68,0,1.232,0.552,1.232,1.231V18.91z"/>
	</g>
	<g>
		<path fill="#929497" d="M27.956,18.302c0,1.934-1.518,3.501-3.389,3.501H6.648c-1.871,0-3.389-1.567-3.389-3.501v-2.49
			c0-1.934,1.518-3.501,3.389-3.501h17.918c1.871,0,3.389,1.567,3.389,3.501V18.302z"/>
	</g>
	<g>
		<rect x="10.841" y="7.483" fill="#58595B" width="9.533" height="0.584"/>
	</g>
	<g>
		<rect x="10.841" y="9.717" fill="#58595B" width="9.533" height="0.584"/>
	</g>
</g>
</svg>
