<?xml version="1.0" encoding="utf-8"?>
<!-- Generator: Adobe Illustrator 16.0.0, SVG Export Plug-In . SVG Version: 6.00 Build 0)  -->
<!DOCTYPE svg PUBLIC "-//W3C//DTD SVG 1.1//EN" "http://www.w3.org/Graphics/SVG/1.1/DTD/svg11.dtd">
<svg version="1.1" id="Layer_1" xmlns="http://www.w3.org/2000/svg" xmlns:xlink="http://www.w3.org/1999/xlink" x="0px" y="0px"
	 width="31.215px" height="26.545px" viewBox="0 0 31.215 26.545" enable-background="new 0 0 31.215 26.545" xml:space="preserve">
<rect fill="#D0D2D3" width="31.215" height="26.545"/>
<g>
	<g>
		<path fill="#BBBDBF" d="M8.309,13.272H4.605c0,6.077,4.926,11.002,11.001,11.002v-3.702C11.576,20.572,8.309,17.304,8.309,13.272z
			"/>
		<path fill="#929497" d="M15.606,5.973V2.271c-6.075,0-11.001,4.926-11.001,11.002h3.703C8.309,9.241,11.576,5.973,15.606,5.973z"
			/>
		<path fill="#FFFFFF" d="M22.363,16.041c-1.09,2.658-3.705,4.531-6.757,4.531v3.702c4.558,0,8.469-2.771,10.139-6.72
			C24.419,16.886,23.883,16.724,22.363,16.041z"/>
		<path fill="#6D6E70" d="M22.906,13.272h3.703c0-6.076-4.926-11.002-11.003-11.002v3.703C19.639,5.973,22.906,9.241,22.906,13.272z
			"/>
	</g>
	<g>
		<path fill="#58595B" d="M17.884,12.793l-1.043,1.382c-0.141,0.184-0.254,0.479-0.254,0.72v0.294h-1.832v-0.423
			c0-0.606,0.169-0.986,0.536-1.466l1.043-1.34c0.225-0.296,0.409-0.635,0.409-0.945c0-0.663-0.437-1.156-1.143-1.156
			c-0.748,0-1.128,0.523-1.128,1.17h-1.834c0-1.749,1.326-2.82,2.962-2.82c1.594,0,2.976,1.03,2.976,2.82
			C18.576,11.735,18.279,12.271,17.884,12.793z M14.698,18.336V16.46h1.946v1.876H14.698z"/>
	</g>
</g>
</svg>
