<?xml version="1.0" encoding="utf-8"?>
<!-- Generator: Adobe Illustrator 16.0.0, SVG Export Plug-In . SVG Version: 6.00 Build 0)  -->
<!DOCTYPE svg PUBLIC "-//W3C//DTD SVG 1.1//EN" "http://www.w3.org/Graphics/SVG/1.1/DTD/svg11.dtd">
<svg version="1.1" id="Layer_1" xmlns="http://www.w3.org/2000/svg" xmlns:xlink="http://www.w3.org/1999/xlink" x="0px" y="0px"
	 width="17.451px" height="13px" viewBox="0 0 17.451 13" enable-background="new 0 0 17.451 13" xml:space="preserve">
<g>
	<path fill="#A6A8AB" d="M16.009,0H1.441C0.646,0,0,0.757,0,1.691v8.214c0,0.934,0.646,1.691,1.441,1.691h10.014L12.858,13
		l1.403-1.403h1.747c0.797,0,1.442-0.758,1.442-1.691V1.691C17.451,0.757,16.806,0,16.009,0z"/>
	<g>
		<path fill="#FFFFFF" d="M10.411,5.207L9.639,6.229C9.534,6.365,9.451,6.584,9.451,6.762v0.218H8.094V6.666
			c0-0.447,0.126-0.729,0.396-1.085l0.772-0.99C9.43,4.37,9.565,4.12,9.565,3.891c0-0.49-0.323-0.855-0.845-0.855
			c-0.554,0-0.836,0.386-0.836,0.866H6.528c0-1.295,0.981-2.088,2.192-2.088c1.179,0,2.201,0.763,2.201,2.088
			C10.922,4.423,10.703,4.82,10.411,5.207z M8.053,9.308V7.92h1.439v1.388H8.053z"/>
	</g>
</g>
</svg>
