<?xml version="1.0" encoding="utf-8"?>
<!-- Generator: Adobe Illustrator 16.0.0, SVG Export Plug-In . SVG Version: 6.00 Build 0)  -->
<!DOCTYPE svg PUBLIC "-//W3C//DTD SVG 1.1//EN" "http://www.w3.org/Graphics/SVG/1.1/DTD/svg11.dtd">
<svg version="1.1" id="Layer_1" xmlns="http://www.w3.org/2000/svg" xmlns:xlink="http://www.w3.org/1999/xlink" x="0px" y="0px"
	 width="160px" height="160px" viewBox="0 0 160 160" enable-background="new 0 0 160 160" xml:space="preserve">
<rect fill="#D0D2D3" width="160" height="160"/>
<path fill-rule="evenodd" clip-rule="evenodd" fill="#FFFFFF" d="M101.66,98.467c1.709,3.753,5.396,8.019,6.633,11.442
	c0.371,1.029-0.08,3.078-0.89,3.703c-16.771,12.917-31.423,27.817-43.237,45.436c-0.119,0.178-0.394,0.249-1.577,0.952
	c1.651-7.208,2.804-13.75,4.7-20.068c1.673-5.573,3.868-11.046,6.41-16.282c2.062-4.248,2.234-8.277,0.62-12.494
	c-1.589-4.15-3.353-8.233-5.068-12.336c-1.204-2.879-3.419-3.908-6.452-3.47c-3.267,0.473-6.533,1.125-9.816,1.26
	c-4.952,0.198-7.256-2.55-6.478-7.426c0.315-1.966,0.872-3.809-1.796-4.602c-0.471-0.14-1.062-0.891-1.078-1.375
	c-0.08-2.669,0.206-5.363-0.07-8.003c-0.115-1.108-1.07-2.481-2.045-3.079c-3.63-2.226-3.902-3.515-1.135-6.798
	c3.615-4.291,7.703-8.483,5.598-14.859c-0.409-1.238-1.434-2.706-2.554-3.185c-2.264-0.968-2.685-2.024-1.907-4.356
	c2.814-8.431,6.475-16.313,13.151-22.45c3.274-3.008,7.121-6.347,11.575-5.15c3.219,0.864,7.273-2.282,10.998-2.759
	c19.812-2.534,35.441,8.055,40.91,27.399c3.225,11.41,3.396,23.1,3.312,34.816c-0.035,5.094-0.291,10.189-0.16,15.277
	c0.061,2.352-0.818,3.371-2.932,4.08C113.465,95.788,106.631,96.654,101.66,98.467z"/>
</svg>
