<?xml version="1.0" encoding="utf-8"?>
<!-- Generator: Adobe Illustrator 16.0.0, SVG Export Plug-In . SVG Version: 6.00 Build 0)  -->
<!DOCTYPE svg PUBLIC "-//W3C//DTD SVG 1.1//EN" "http://www.w3.org/Graphics/SVG/1.1/DTD/svg11.dtd">
<svg version="1.1" id="Layer_1" xmlns="http://www.w3.org/2000/svg" xmlns:xlink="http://www.w3.org/1999/xlink" x="0px" y="0px"
	 width="31.055px" height="16.612px" viewBox="0 0 31.055 16.612" enable-background="new 0 0 31.055 16.612" xml:space="preserve">
<g>
	<path fill="#A6A8AB" d="M20.458,0H1.843C0.825,0,0,0.968,0,2.162v10.496c0,1.194,0.825,2.162,1.843,2.162h12.796l1.793,1.793
		l1.793-1.793h2.232c1.018,0,1.843-0.968,1.843-2.162V2.162C22.301,0.968,21.476,0,20.458,0z"/>
	<g>
		<path fill="#E6E7E8" d="M13.304,6.653L12.317,7.96c-0.133,0.173-0.24,0.454-0.24,0.681v0.279h-1.734v-0.4
			c0-0.573,0.161-0.933,0.507-1.387l0.987-1.267c0.213-0.28,0.387-0.601,0.387-0.894c0-0.627-0.413-1.093-1.08-1.093
			c-0.708,0-1.067,0.494-1.067,1.106H8.343c0-1.654,1.254-2.667,2.801-2.667c1.507,0,2.814,0.975,2.814,2.667
			C13.958,5.652,13.678,6.159,13.304,6.653z M10.291,11.895v-1.774h1.84v1.774H10.291z"/>
	</g>
	<line fill="none" stroke="#929497" stroke-miterlimit="10" x1="30.055" y1="0" x2="30.055" y2="16.612"/>
</g>
</svg>
