<?xml version="1.0" encoding="utf-8"?>
<!-- Generator: Adobe Illustrator 16.0.0, SVG Export Plug-In . SVG Version: 6.00 Build 0)  -->
<!DOCTYPE svg PUBLIC "-//W3C//DTD SVG 1.1//EN" "http://www.w3.org/Graphics/SVG/1.1/DTD/svg11.dtd">
<svg version="1.1" id="Layer_1" xmlns="http://www.w3.org/2000/svg" xmlns:xlink="http://www.w3.org/1999/xlink" x="0px" y="0px"
	 width="85.5px" height="13.75px" viewBox="0 0 85.5 13.75" enable-background="new 0 0 85.5 13.75" xml:space="preserve">
<g>
	<g>
		<path fill="#0ECC7A" d="M5.518,8.244H2.601v5.041H0.656V0.465h4.861c2.503,0,4.105,1.657,4.105,3.889S8.021,8.244,5.518,8.244z
			 M5.409,2.212H2.601v4.267h2.809c1.351,0,2.27-0.774,2.27-2.125S6.76,2.212,5.409,2.212z"/>
		<path fill="#0ECC7A" d="M15.578,13.285V0.465h1.944v11.073h6.176v1.746H15.578z"/>
		<path fill="#0ECC7A" d="M36.874,13.285l-0.882-2.574h-5.06l-0.882,2.574h-2.071l4.699-12.819h1.566l4.7,12.819H36.874z
			 M33.508,3.364l-1.999,5.69h3.943L33.508,3.364z"/>
		<path fill="#0ECC7A" d="M52.229,13.285l-5.924-9.02v9.02h-1.945V0.465h1.783l5.924,9.003V0.465h1.943v12.819H52.229z"/>
		<path fill="#0ECC7A" d="M60.955,13.285V0.465h8.192v1.747H62.9v3.745h5.329v1.729H62.9v3.853h6.247v1.746H60.955z"/>
		<path fill="#0ECC7A" d="M82.773,13.285l-0.883-2.574h-5.059l-0.883,2.574h-2.07l4.699-12.819h1.566l4.699,12.819H82.773z
			 M79.406,3.364l-1.998,5.69h3.943L79.406,3.364z"/>
	</g>
</g>
</svg>
